<mxfile host="65bd71144e">
    <diagram id="D1smWDiR0jM6n6IMPvln" name="Page-1">
        <mxGraphModel dx="361" dy="346" grid="1" gridSize="10" guides="1" tooltips="1" connect="1" arrows="1" fold="1" page="1" pageScale="1" pageWidth="850" pageHeight="1100" math="0" shadow="0">
            <root>
                <mxCell id="0"/>
                <mxCell id="1" parent="0"/>
                <mxCell id="2" value="PACOTES:&lt;br&gt;DB&lt;br&gt;Configs&lt;br&gt;Handlers&lt;br&gt;Models" style="rounded=1;whiteSpace=wrap;html=1;" vertex="1" parent="1">
                    <mxGeometry x="30" y="10" width="90" height="120" as="geometry"/>
                </mxCell>
            </root>
        </mxGraphModel>
    </diagram>
</mxfile>